{
  "asset": {
    "generator": "Khronos glTF Blender I/O v3.3.27",
    "version": "2.0"
  },
  "scene": 0,
  "scenes": [
    {
      "name": "Scene",
      "nodes": [0]
    }
  ],
  "nodes": [
    {
      "mesh": 0,
      "name": "Icosphere",
      "translation": [
        0.012557001784443855, 0.22907844185829163, -0.03833550959825516
      ]
    }
  ],
  "materials": [
    {
      "doubleSided": true,
      "name": "Material.001",
      "pbrMetallicRoughness": {
        "baseColorFactor": [
          0.800000011920929, 0.800000011920929, 0.800000011920929, 1
        ],
        "metallicFactor": 0,
        "roughnessFactor": 0.5
      }
    },
    {
      "doubleSided": true,
      "name": "Material.002",
      "pbrMetallicRoughness": {
        "baseColorFactor": [0, 0, 0, 1],
        "metallicFactor": 0,
        "roughnessFactor": 0.5
      }
    }
  ],
  "meshes": [
    {
      "name": "Icosphere",
      "primitives": [
        {
          "attributes": {
            "POSITION": 0,
            "NORMAL": 1,
            "TEXCOORD_0": 2
          },
          "indices": 3,
          "material": 0
        },
        {
          "attributes": {
            "POSITION": 4,
            "NORMAL": 5,
            "TEXCOORD_0": 6
          },
          "indices": 7,
          "material": 1
        }
      ]
    }
  ],
  "accessors": [
    {
      "bufferView": 0,
      "componentType": 5126,
      "count": 133,
      "max": [0.252081036567688, 0.24742689728736877, 0.25519201159477234],
      "min": [-0.252081036567688, -0.24742689728736877, -0.25519201159477234],
      "type": "VEC3"
    },
    {
      "bufferView": 1,
      "componentType": 5126,
      "count": 133,
      "type": "VEC3"
    },
    {
      "bufferView": 2,
      "componentType": 5126,
      "count": 133,
      "type": "VEC2"
    },
    {
      "bufferView": 3,
      "componentType": 5123,
      "count": 255,
      "type": "SCALAR"
    },
    {
      "bufferView": 4,
      "componentType": 5126,
      "count": 47,
      "max": [0.252081036567688, 0.24742648005485535, 0.25519201159477234],
      "min": [-0.252081036567688, -0.24742648005485535, -0.25519201159477234],
      "type": "VEC3"
    },
    {
      "bufferView": 5,
      "componentType": 5126,
      "count": 47,
      "type": "VEC3"
    },
    {
      "bufferView": 6,
      "componentType": 5126,
      "count": 47,
      "type": "VEC2"
    },
    {
      "bufferView": 7,
      "componentType": 5123,
      "count": 93,
      "type": "SCALAR"
    }
  ],
  "bufferViews": [
    {
      "buffer": 0,
      "byteLength": 1596,
      "byteOffset": 0,
      "target": 34962
    },
    {
      "buffer": 0,
      "byteLength": 1596,
      "byteOffset": 1596,
      "target": 34962
    },
    {
      "buffer": 0,
      "byteLength": 1064,
      "byteOffset": 3192,
      "target": 34962
    },
    {
      "buffer": 0,
      "byteLength": 510,
      "byteOffset": 4256,
      "target": 34963
    },
    {
      "buffer": 0,
      "byteLength": 564,
      "byteOffset": 4768,
      "target": 34962
    },
    {
      "buffer": 0,
      "byteLength": 564,
      "byteOffset": 5332,
      "target": 34962
    },
    {
      "buffer": 0,
      "byteLength": 376,
      "byteOffset": 5896,
      "target": 34962
    },
    {
      "buffer": 0,
      "byteLength": 186,
      "byteOffset": 6272,
      "target": 34963
    }
  ],
  "buffers": [
    {
      "byteLength": 6460,
      "uri": "data:application/octet-stream;base64,"
    }
  ]
}
