{
  "asset": {
    "generator": "Khronos glTF Blender I/O v3.3.27",
    "version": "2.0"
  },
  "scene": 0,
  "scenes": [
    {
      "name": "Scene",
      "nodes": [0, 1, 2, 3, 4]
    }
  ],
  "nodes": [
    {
      "mesh": 0,
      "name": "Icosphere",
      "scale": [0.8095616698265076, 0.8095616698265076, 0.8095616698265076],
      "translation": [
        0.004553534090518951, 0.15862666070461273, 0.08045946061611176
      ]
    },
    {
      "mesh": 1,
      "name": "Icosphere.001",
      "rotation": [
        -0.04660229757428169, 0.10385631769895554, -0.011420626193284988,
        0.9934343099594116
      ],
      "scale": [0.4360049068927765, 0.4360049366950989, 0.4360049068927765],
      "translation": [
        -0.7777690887451172, -0.016987796872854233, -0.4185313880443573
      ]
    },
    {
      "mesh": 2,
      "name": "Icosphere.002",
      "rotation": [
        -0.03489498421549797, -0.32898232340812683, 0.05166548117995262,
        0.9422757625579834
      ],
      "scale": [0.6384010910987854, 0.6384010910987854, 0.6384010314941406],
      "translation": [
        0.3441835641860962, 0.09543997049331665, -1.0302420854568481
      ]
    },
    {
      "mesh": 3,
      "name": "Icosphere.003",
      "rotation": [
        -0.017452672123908997, 0.05528030917048454, -0.036709852516651154,
        0.9976431727409363
      ],
      "scale": [0.5440094470977783, 0.5440095067024231, 0.5440094470977783],
      "translation": [
        -0.8700060844421387, 0.050808001309633255, 0.7043278813362122
      ]
    },
    {
      "mesh": 4,
      "name": "Icosphere.004",
      "rotation": [
        -0.04660229757428169, 0.10385631769895554, -0.011420627124607563,
        0.9934343099594116
      ],
      "scale": [0.32964542508125305, 0.32964542508125305, 0.32964539527893066],
      "translation": [
        0.9099311828613281, -0.023161951452493668, 0.20260590314865112
      ]
    }
  ],
  "materials": [
    {
      "doubleSided": true,
      "name": "Material.001",
      "pbrMetallicRoughness": {
        "baseColorFactor": [
          0.02710660733282566, 0.5488520264625549, 0.04296567291021347, 1
        ],
        "metallicFactor": 0,
        "roughnessFactor": 0.5
      }
    },
    {
      "doubleSided": true,
      "name": "Material.002",
      "pbrMetallicRoughness": {
        "baseColorFactor": [
          0.014622288756072521, 0.25294312834739685, 0.02233671210706234, 1
        ],
        "metallicFactor": 0,
        "roughnessFactor": 0.5
      }
    },
    {
      "doubleSided": true,
      "name": "Material.003",
      "pbrMetallicRoughness": {
        "baseColorFactor": [
          0.02710660733282566, 0.5488520264625549, 0.04296567291021347, 1
        ],
        "metallicFactor": 0,
        "roughnessFactor": 0.5
      }
    },
    {
      "doubleSided": true,
      "name": "Material.004",
      "pbrMetallicRoughness": {
        "baseColorFactor": [
          0.02710660733282566, 0.5488520264625549, 0.04296567291021347, 1
        ],
        "metallicFactor": 0,
        "roughnessFactor": 0.5
      }
    },
    {
      "doubleSided": true,
      "name": "Material.005",
      "pbrMetallicRoughness": {
        "baseColorFactor": [
          0.02710660733282566, 0.5488520264625549, 0.04296567291021347, 1
        ],
        "metallicFactor": 0,
        "roughnessFactor": 0.5
      }
    }
  ],
  "meshes": [
    {
      "name": "Icosphere",
      "primitives": [
        {
          "attributes": {
            "POSITION": 0,
            "NORMAL": 1,
            "TEXCOORD_0": 2
          },
          "indices": 3,
          "material": 0
        }
      ]
    },
    {
      "name": "Icosphere.001",
      "primitives": [
        {
          "attributes": {
            "POSITION": 4,
            "NORMAL": 5,
            "TEXCOORD_0": 6
          },
          "indices": 3,
          "material": 1
        }
      ]
    },
    {
      "name": "Icosphere.002",
      "primitives": [
        {
          "attributes": {
            "POSITION": 7,
            "NORMAL": 8,
            "TEXCOORD_0": 9
          },
          "indices": 3,
          "material": 2
        }
      ]
    },
    {
      "name": "Icosphere.003",
      "primitives": [
        {
          "attributes": {
            "POSITION": 10,
            "NORMAL": 11,
            "TEXCOORD_0": 12
          },
          "indices": 3,
          "material": 3
        }
      ]
    },
    {
      "name": "Icosphere.004",
      "primitives": [
        {
          "attributes": {
            "POSITION": 13,
            "NORMAL": 14,
            "TEXCOORD_0": 15
          },
          "indices": 3,
          "material": 4
        }
      ]
    }
  ],
  "accessors": [
    {
      "bufferView": 0,
      "componentType": 5126,
      "count": 60,
      "max": [0.8944249749183655, 1, 0.8506399989128113],
      "min": [-0.8944249749183655, -0.45596054196357727, -0.8506399989128113],
      "type": "VEC3"
    },
    {
      "bufferView": 1,
      "componentType": 5126,
      "count": 60,
      "type": "VEC3"
    },
    {
      "bufferView": 2,
      "componentType": 5126,
      "count": 60,
      "type": "VEC2"
    },
    {
      "bufferView": 3,
      "componentType": 5123,
      "count": 60,
      "type": "SCALAR"
    },
    {
      "bufferView": 4,
      "componentType": 5126,
      "count": 60,
      "max": [0.8944249749183655, 1, 0.8506399989128113],
      "min": [-0.8944249749183655, -0.45596054196357727, -0.8506399989128113],
      "type": "VEC3"
    },
    {
      "bufferView": 5,
      "componentType": 5126,
      "count": 60,
      "type": "VEC3"
    },
    {
      "bufferView": 6,
      "componentType": 5126,
      "count": 60,
      "type": "VEC2"
    },
    {
      "bufferView": 7,
      "componentType": 5126,
      "count": 60,
      "max": [0.8944249749183655, 1, 0.8506399989128113],
      "min": [-0.8944249749183655, -0.45596054196357727, -0.8506399989128113],
      "type": "VEC3"
    },
    {
      "bufferView": 8,
      "componentType": 5126,
      "count": 60,
      "type": "VEC3"
    },
    {
      "bufferView": 9,
      "componentType": 5126,
      "count": 60,
      "type": "VEC2"
    },
    {
      "bufferView": 10,
      "componentType": 5126,
      "count": 60,
      "max": [0.8944249749183655, 1, 0.8506399989128113],
      "min": [-0.8944249749183655, -0.45596054196357727, -0.8506399989128113],
      "type": "VEC3"
    },
    {
      "bufferView": 11,
      "componentType": 5126,
      "count": 60,
      "type": "VEC3"
    },
    {
      "bufferView": 12,
      "componentType": 5126,
      "count": 60,
      "type": "VEC2"
    },
    {
      "bufferView": 13,
      "componentType": 5126,
      "count": 60,
      "max": [0.8944249749183655, 1, 0.8506399989128113],
      "min": [-0.8944249749183655, -0.45596054196357727, -0.8506399989128113],
      "type": "VEC3"
    },
    {
      "bufferView": 14,
      "componentType": 5126,
      "count": 60,
      "type": "VEC3"
    },
    {
      "bufferView": 15,
      "componentType": 5126,
      "count": 60,
      "type": "VEC2"
    }
  ],
  "bufferViews": [
    {
      "buffer": 0,
      "byteLength": 720,
      "byteOffset": 0,
      "target": 34962
    },
    {
      "buffer": 0,
      "byteLength": 720,
      "byteOffset": 720,
      "target": 34962
    },
    {
      "buffer": 0,
      "byteLength": 480,
      "byteOffset": 1440,
      "target": 34962
    },
    {
      "buffer": 0,
      "byteLength": 120,
      "byteOffset": 1920,
      "target": 34963
    },
    {
      "buffer": 0,
      "byteLength": 720,
      "byteOffset": 2040,
      "target": 34962
    },
    {
      "buffer": 0,
      "byteLength": 720,
      "byteOffset": 2760,
      "target": 34962
    },
    {
      "buffer": 0,
      "byteLength": 480,
      "byteOffset": 3480,
      "target": 34962
    },
    {
      "buffer": 0,
      "byteLength": 720,
      "byteOffset": 3960,
      "target": 34962
    },
    {
      "buffer": 0,
      "byteLength": 720,
      "byteOffset": 4680,
      "target": 34962
    },
    {
      "buffer": 0,
      "byteLength": 480,
      "byteOffset": 5400,
      "target": 34962
    },
    {
      "buffer": 0,
      "byteLength": 720,
      "byteOffset": 5880,
      "target": 34962
    },
    {
      "buffer": 0,
      "byteLength": 720,
      "byteOffset": 6600,
      "target": 34962
    },
    {
      "buffer": 0,
      "byteLength": 480,
      "byteOffset": 7320,
      "target": 34962
    },
    {
      "buffer": 0,
      "byteLength": 720,
      "byteOffset": 7800,
      "target": 34962
    },
    {
      "buffer": 0,
      "byteLength": 720,
      "byteOffset": 8520,
      "target": 34962
    },
    {
      "buffer": 0,
      "byteLength": 480,
      "byteOffset": 9240,
      "target": 34962
    }
  ],
  "buffers": [
    {
      "byteLength": 9720,
      "uri": "data:application/octet-stream;base64,"
    }
  ]
}
