{
  "asset": {
    "generator": "Khronos glTF Blender I/O v3.3.27",
    "version": "2.0"
  },
  "extensionsUsed": ["KHR_materials_specular"],
  "scene": 0,
  "scenes": [
    {
      "name": "Scene",
      "nodes": [0]
    }
  ],
  "nodes": [
    {
      "mesh": 0,
      "name": "12222_Cat_v1_l3",
      "scale": [0.03442016616463661, 0.03442016616463661, 0.03442016616463661]
    }
  ],
  "materials": [
    {
      "doubleSided": true,
      "extensions": {
        "KHR_materials_specular": {
          "specularColorFactor": [0, 0, 0]
        }
      },
      "name": "Cat",
      "normalTexture": {
        "index": 0,
        "scale": 0
      },
      "pbrMetallicRoughness": {
        "baseColorTexture": {
          "index": 1
        },
        "metallicFactor": 0,
        "roughnessFactor": 0.8999999761581421
      }
    }
  ],
  "meshes": [
    {
      "name": "12222_Cat_v1_l3",
      "primitives": [
        {
          "attributes": {
            "POSITION": 0,
            "NORMAL": 1,
            "TEXCOORD_0": 2
          },
          "indices": 3,
          "material": 0
        }
      ]
    }
  ],
  "textures": [
    {
      "sampler": 0,
      "source": 0
    },
    {
      "sampler": 0,
      "source": 1
    }
  ],
  "images": [
    {
      "bufferView": 4,
      "mimeType": "image/jpeg",
      "name": "Cat_bump"
    },
    {
      "bufferView": 5,
      "mimeType": "image/jpeg",
      "name": "Cat_diffuse"
    }
  ],
  "accessors": [
    {
      "bufferView": 0,
      "componentType": 5126,
      "count": 36534,
      "max": [6.277599811553955, 37.69240188598633, 30.51729965209961],
      "min": [-6.277599811553955, 0.11029999703168869, -30.484500885009766],
      "type": "VEC3"
    },
    {
      "bufferView": 1,
      "componentType": 5126,
      "count": 36534,
      "type": "VEC3"
    },
    {
      "bufferView": 2,
      "componentType": 5126,
      "count": 36534,
      "type": "VEC2"
    },
    {
      "bufferView": 3,
      "componentType": 5123,
      "count": 211872,
      "type": "SCALAR"
    }
  ],
  "bufferViews": [
    {
      "buffer": 0,
      "byteLength": 438408,
      "byteOffset": 0,
      "target": 34962
    },
    {
      "buffer": 0,
      "byteLength": 438408,
      "byteOffset": 438408,
      "target": 34962
    },
    {
      "buffer": 0,
      "byteLength": 292272,
      "byteOffset": 876816,
      "target": 34962
    },
    {
      "buffer": 0,
      "byteLength": 423744,
      "byteOffset": 1169088,
      "target": 34963
    },
    {
      "buffer": 0,
      "byteLength": 734485,
      "byteOffset": 1592832
    },
    {
      "buffer": 0,
      "byteLength": 568464,
      "byteOffset": 2327320
    }
  ],
  "samplers": [
    {
      "magFilter": 9729,
      "minFilter": 9987
    }
  ],
  "buffers": [
    {
      "byteLength": 2895784,
      "uri": "data:application/octet-stream;base64,"
    }
  ]
}
