{
  "asset": {
    "generator": "Khronos glTF Blender I/O v3.3.27",
    "version": "2.0"
  },
  "extensionsUsed": ["KHR_materials_specular", "KHR_materials_ior"],
  "scene": 0,
  "scenes": [
    {
      "name": "Scene",
      "nodes": [0, 1]
    }
  ],
  "nodes": [
    {
      "mesh": 0,
      "name": "Curve.007",
      "rotation": [0.5, 0.5, -0.5, 0.5],
      "scale": [861.8106689453125, 861.8106689453125, 861.8106689453125],
      "translation": [
        1.4029335975646973, -0.048564612865448, -0.11336153745651245
      ]
    },
    {
      "mesh": 1,
      "name": "Cube.006",
      "rotation": [0, 0.7071068286895752, 0, 0.7071068286895752],
      "scale": [2.539982318878174, 2.539982318878174, 0.7619947195053101],
      "translation": [
        0.18700143694877625, -0.048564612865448, -0.3916581869125366
      ]
    }
  ],
  "materials": [
    {
      "doubleSided": true,
      "extensions": {
        "KHR_materials_specular": {
          "specularColorFactor": [
            0.42037769082765863, 0.42037769082765863, 0.42037769082765863
          ]
        },
        "KHR_materials_ior": {
          "ior": 1.4500000476837158
        }
      },
      "name": "Material.001",
      "pbrMetallicRoughness": {
        "baseColorFactor": [
          0.04060709476470947, 0.05578580126166344, 0.20000000298023224, 1
        ],
        "metallicFactor": 0,
        "roughnessFactor": 0.418181836605072
      }
    }
  ],
  "meshes": [
    {
      "name": "Curve.007",
      "primitives": [
        {
          "attributes": {
            "POSITION": 0,
            "NORMAL": 1,
            "TEXCOORD_0": 2
          },
          "indices": 3
        }
      ]
    },
    {
      "name": "Cube.002",
      "primitives": [
        {
          "attributes": {
            "POSITION": 4,
            "NORMAL": 5,
            "TEXCOORD_0": 6
          },
          "indices": 7,
          "material": 0
        }
      ]
    }
  ],
  "accessors": [
    {
      "bufferView": 0,
      "componentType": 5126,
      "count": 6474,
      "max": [
        0.0018616545712575316, 0.00019999999494757503, 0.0018018543487414718
      ],
      "min": [
        -0.0014434867771342397, -0.00019999999494757503, -0.0018160610925406218
      ],
      "type": "VEC3"
    },
    {
      "bufferView": 1,
      "componentType": 5126,
      "count": 6474,
      "type": "VEC3"
    },
    {
      "bufferView": 2,
      "componentType": 5126,
      "count": 6474,
      "type": "VEC2"
    },
    {
      "bufferView": 3,
      "componentType": 5123,
      "count": 31668,
      "type": "SCALAR"
    },
    {
      "bufferView": 4,
      "componentType": 5126,
      "count": 39,
      "max": [1, 1, 1],
      "min": [-1, -1, -1],
      "type": "VEC3"
    },
    {
      "bufferView": 5,
      "componentType": 5126,
      "count": 39,
      "type": "VEC3"
    },
    {
      "bufferView": 6,
      "componentType": 5126,
      "count": 39,
      "type": "VEC2"
    },
    {
      "bufferView": 7,
      "componentType": 5123,
      "count": 144,
      "type": "SCALAR"
    }
  ],
  "bufferViews": [
    {
      "buffer": 0,
      "byteLength": 77688,
      "byteOffset": 0,
      "target": 34962
    },
    {
      "buffer": 0,
      "byteLength": 77688,
      "byteOffset": 77688,
      "target": 34962
    },
    {
      "buffer": 0,
      "byteLength": 51792,
      "byteOffset": 155376,
      "target": 34962
    },
    {
      "buffer": 0,
      "byteLength": 63336,
      "byteOffset": 207168,
      "target": 34963
    },
    {
      "buffer": 0,
      "byteLength": 468,
      "byteOffset": 270504,
      "target": 34962
    },
    {
      "buffer": 0,
      "byteLength": 468,
      "byteOffset": 270972,
      "target": 34962
    },
    {
      "buffer": 0,
      "byteLength": 312,
      "byteOffset": 271440,
      "target": 34962
    },
    {
      "buffer": 0,
      "byteLength": 288,
      "byteOffset": 271752,
      "target": 34963
    }
  ],
  "buffers": [
    {
      "byteLength": 272040,
      "uri": "data:application/octet-stream;base64,"
    }
  ]
}
