{
  "asset": {
    "generator": "Khronos glTF Blender I/O v3.3.27",
    "version": "2.0"
  },
  "scene": 0,
  "scenes": [
    {
      "name": "Scene",
      "nodes": [0, 1, 2, 3]
    }
  ],
  "nodes": [
    {
      "mesh": 0,
      "name": "Cube",
      "rotation": [
        0.04975128546357155, 0.8147117495536804, -0.0933944433927536,
        0.5701289772987366
      ],
      "translation": [
        2.2039620876312256, 0.055918946862220764, -0.42398589849472046
      ]
    },
    {
      "mesh": 1,
      "name": "Cube.001",
      "rotation": [
        0.04975128546357155, 0.8147117495536804, -0.0933944433927536,
        0.5701289772987366
      ],
      "translation": [
        2.1905407905578613, 0.05492959916591644, -0.4604918956756592
      ]
    },
    {
      "mesh": 2,
      "name": "Cylinder",
      "rotation": [
        -0.5409090518951416, 0.6112679839134216, -0.46918150782585144,
        0.33710169792175293
      ],
      "scale": [0.09047024697065353, 0.05505415424704552, 0.09047024697065353],
      "translation": [
        2.987995147705078, 0.3843259811401367, 0.34091925621032715
      ]
    },
    {
      "mesh": 3,
      "name": "Cylinder.001",
      "rotation": [
        -0.5409090518951416, 0.6112679839134216, -0.46918147802352905,
        0.33710166811943054
      ],
      "translation": [
        2.196796417236328, 0.05539076030254364, -0.44347673654556274
      ]
    }
  ],
  "materials": [
    {
      "doubleSided": true,
      "name": "IG",
      "pbrMetallicRoughness": {
        "metallicFactor": 0,
        "roughnessFactor": 0.15000000596046448
      }
    },
    {
      "doubleSided": true,
      "name": "White",
      "pbrMetallicRoughness": {
        "baseColorFactor": [
          0.8000000715255737, 0.6130876541137695, 0.48953232169151306, 1
        ],
        "metallicFactor": 0,
        "roughnessFactor": 0.15000000596046448
      }
    }
  ],
  "meshes": [
    {
      "name": "Cube.001",
      "primitives": [
        {
          "attributes": {
            "POSITION": 0,
            "NORMAL": 1,
            "TEXCOORD_0": 2
          },
          "indices": 3,
          "material": 0
        }
      ]
    },
    {
      "name": "Cube.002",
      "primitives": [
        {
          "attributes": {
            "POSITION": 4,
            "NORMAL": 5,
            "TEXCOORD_0": 6
          },
          "indices": 7,
          "material": 1
        }
      ]
    },
    {
      "name": "Cylinder",
      "primitives": [
        {
          "attributes": {
            "POSITION": 8,
            "NORMAL": 9,
            "TEXCOORD_0": 10
          },
          "indices": 11,
          "material": 1
        }
      ]
    },
    {
      "name": "Cylinder.001",
      "primitives": [
        {
          "attributes": {
            "POSITION": 12,
            "NORMAL": 13,
            "TEXCOORD_0": 14
          },
          "indices": 15,
          "material": 1
        }
      ]
    }
  ],
  "accessors": [
    {
      "bufferView": 0,
      "componentType": 5126,
      "count": 844,
      "max": [0.039739012718200684, 1, 1],
      "min": [-1, -1, -1],
      "type": "VEC3"
    },
    {
      "bufferView": 1,
      "componentType": 5126,
      "count": 844,
      "type": "VEC3"
    },
    {
      "bufferView": 2,
      "componentType": 5126,
      "count": 844,
      "type": "VEC2"
    },
    {
      "bufferView": 3,
      "componentType": 5123,
      "count": 3444,
      "type": "SCALAR"
    },
    {
      "bufferView": 4,
      "componentType": 5126,
      "count": 314,
      "max": [-0.9999999403953552, 0.7150899767875671, 0.7150899767875671],
      "min": [-1.0900208950042725, -0.7150899767875671, -0.7150899767875671],
      "type": "VEC3"
    },
    {
      "bufferView": 5,
      "componentType": 5126,
      "count": 314,
      "type": "VEC3"
    },
    {
      "bufferView": 6,
      "componentType": 5126,
      "count": 314,
      "type": "VEC2"
    },
    {
      "bufferView": 7,
      "componentType": 5123,
      "count": 1728,
      "type": "SCALAR"
    },
    {
      "bufferView": 8,
      "componentType": 5126,
      "count": 281,
      "max": [1, 1, 1],
      "min": [-1, -1, -1],
      "type": "VEC3"
    },
    {
      "bufferView": 9,
      "componentType": 5126,
      "count": 281,
      "type": "VEC3"
    },
    {
      "bufferView": 10,
      "componentType": 5126,
      "count": 281,
      "type": "VEC2"
    },
    {
      "bufferView": 11,
      "componentType": 5123,
      "count": 1140,
      "type": "SCALAR"
    },
    {
      "bufferView": 12,
      "componentType": 5126,
      "count": 281,
      "max": [0.3956350088119507, -0.9999995827674866, 0.39563506841659546],
      "min": [-0.3956350088119507, -1.0716078281402588, -0.3956350088119507],
      "type": "VEC3"
    },
    {
      "bufferView": 13,
      "componentType": 5126,
      "count": 281,
      "type": "VEC3"
    },
    {
      "bufferView": 14,
      "componentType": 5126,
      "count": 281,
      "type": "VEC2"
    },
    {
      "bufferView": 15,
      "componentType": 5123,
      "count": 1536,
      "type": "SCALAR"
    }
  ],
  "bufferViews": [
    {
      "buffer": 0,
      "byteLength": 10128,
      "byteOffset": 0,
      "target": 34962
    },
    {
      "buffer": 0,
      "byteLength": 10128,
      "byteOffset": 10128,
      "target": 34962
    },
    {
      "buffer": 0,
      "byteLength": 6752,
      "byteOffset": 20256,
      "target": 34962
    },
    {
      "buffer": 0,
      "byteLength": 6888,
      "byteOffset": 27008,
      "target": 34963
    },
    {
      "buffer": 0,
      "byteLength": 3768,
      "byteOffset": 33896,
      "target": 34962
    },
    {
      "buffer": 0,
      "byteLength": 3768,
      "byteOffset": 37664,
      "target": 34962
    },
    {
      "buffer": 0,
      "byteLength": 2512,
      "byteOffset": 41432,
      "target": 34962
    },
    {
      "buffer": 0,
      "byteLength": 3456,
      "byteOffset": 43944,
      "target": 34963
    },
    {
      "buffer": 0,
      "byteLength": 3372,
      "byteOffset": 47400,
      "target": 34962
    },
    {
      "buffer": 0,
      "byteLength": 3372,
      "byteOffset": 50772,
      "target": 34962
    },
    {
      "buffer": 0,
      "byteLength": 2248,
      "byteOffset": 54144,
      "target": 34962
    },
    {
      "buffer": 0,
      "byteLength": 2280,
      "byteOffset": 56392,
      "target": 34963
    },
    {
      "buffer": 0,
      "byteLength": 3372,
      "byteOffset": 58672,
      "target": 34962
    },
    {
      "buffer": 0,
      "byteLength": 3372,
      "byteOffset": 62044,
      "target": 34962
    },
    {
      "buffer": 0,
      "byteLength": 2248,
      "byteOffset": 65416,
      "target": 34962
    },
    {
      "buffer": 0,
      "byteLength": 3072,
      "byteOffset": 67664,
      "target": 34963
    }
  ],
  "buffers": [
    {
      "byteLength": 70736,
      "uri": "data:application/octet-stream;base64,"
    }
  ]
}
