{
  "asset": {
    "generator": "Khronos glTF Blender I/O v3.3.27",
    "version": "2.0"
  },
  "scene": 0,
  "scenes": [
    {
      "name": "Scene",
      "nodes": [0]
    }
  ],
  "nodes": [
    {
      "mesh": 0,
      "name": "Text",
      "rotation": [0.7071068286895752, 0, 0, 0.7071068286895752],
      "scale": [2.550771474838257, 2.550771474838257, 2.550771474838257]
    }
  ],
  "materials": [
    {
      "doubleSided": true,
      "name": "Material.001",
      "pbrMetallicRoughness": {
        "baseColorFactor": [
          0.8000000715255737, 0.041271649301052094, 0.028012877330183983, 1
        ],
        "metallicFactor": 0,
        "roughnessFactor": 0.5
      }
    }
  ],
  "meshes": [
    {
      "name": "Text",
      "primitives": [
        {
          "attributes": {
            "POSITION": 0,
            "NORMAL": 1,
            "TEXCOORD_0": 2
          },
          "indices": 3,
          "material": 0
        }
      ]
    }
  ],
  "accessors": [
    {
      "bufferView": 0,
      "componentType": 5126,
      "count": 1300,
      "max": [0.6579999923706055, 0.04999999701976776, 0.019011035561561584],
      "min": [0.05100000649690628, -0.04999999701976776, -0.6920000314712524],
      "type": "VEC3"
    },
    {
      "bufferView": 1,
      "componentType": 5126,
      "count": 1300,
      "type": "VEC3"
    },
    {
      "bufferView": 2,
      "componentType": 5126,
      "count": 1300,
      "type": "VEC2"
    },
    {
      "bufferView": 3,
      "componentType": 5123,
      "count": 5604,
      "type": "SCALAR"
    }
  ],
  "bufferViews": [
    {
      "buffer": 0,
      "byteLength": 15600,
      "byteOffset": 0,
      "target": 34962
    },
    {
      "buffer": 0,
      "byteLength": 15600,
      "byteOffset": 15600,
      "target": 34962
    },
    {
      "buffer": 0,
      "byteLength": 10400,
      "byteOffset": 31200,
      "target": 34962
    },
    {
      "buffer": 0,
      "byteLength": 11208,
      "byteOffset": 41600,
      "target": 34963
    }
  ],
  "buffers": [
    {
      "byteLength": 52808,
      "uri": "data:application/octet-stream;base64,"
    }
  ]
}
