{
    "asset" : {
        "generator" : "Khronos glTF Blender I/O v3.3.27",
        "version" : "2.0"
    },
    "scene" : 0,
    "scenes" : [
        {
            "name" : "Scene",
            "nodes" : [
                0,
                1,
                2
            ]
        }
    ],
    "nodes" : [
        {
            "mesh" : 0,
            "name" : "Icosphere",
            "scale" : [
                0.4148772358894348,
                0.4148772358894348,
                0.4148772358894348
            ],
            "translation" : [
                -0.06769031286239624,
                0.20229032635688782,
                0.02593494951725006
            ]
        },
        {
            "mesh" : 1,
            "name" : "Icosphere.001",
            "rotation" : [
                -0.04660230129957199,
                0.10385634005069733,
                -0.011420628055930138,
                0.9934343695640564
            ],
            "scale" : [
                0.22344008088111877,
                0.22344009578227997,
                0.22344008088111877
            ],
            "translation" : [
                -0.4586712121963501,
                0.15448300540447235,
                -0.2489282637834549
            ]
        },
        {
            "mesh" : 2,
            "name" : "Icosphere.003",
            "rotation" : [
                -0.017452672123908997,
                0.05528030917048454,
                -0.036709852516651154,
                0.9976431727409363
            ],
            "scale" : [
                0.27878931164741516,
                0.27878934144973755,
                0.27878931164741516
            ],
            "translation" : [
                -0.5059400200843811,
                0.2635292708873749,
                0.32650506496429443
            ]
        }
    ],
    "materials" : [
        {
            "doubleSided" : true,
            "name" : "Material.001",
            "pbrMetallicRoughness" : {
                "baseColorFactor" : [
                    0.015867475420236588,
                    0.28100940585136414,
                    0.024366170167922974,
                    1
                ],
                "metallicFactor" : 0,
                "roughnessFactor" : 0.5
            }
        },
        {
            "doubleSided" : true,
            "name" : "Material.002",
            "pbrMetallicRoughness" : {
                "baseColorFactor" : [
                    0.02710660733282566,
                    0.5488520264625549,
                    0.04296567291021347,
                    1
                ],
                "metallicFactor" : 0,
                "roughnessFactor" : 0.5
            }
        },
        {
            "doubleSided" : true,
            "name" : "Material.004",
            "pbrMetallicRoughness" : {
                "baseColorFactor" : [
                    0.02710660733282566,
                    0.5488520264625549,
                    0.04296567291021347,
                    1
                ],
                "metallicFactor" : 0,
                "roughnessFactor" : 0.5
            }
        }
    ],
    "meshes" : [
        {
            "name" : "Icosphere",
            "primitives" : [
                {
                    "attributes" : {
                        "POSITION" : 0,
                        "NORMAL" : 1,
                        "TEXCOORD_0" : 2
                    },
                    "indices" : 3,
                    "material" : 0
                }
            ]
        },
        {
            "name" : "Icosphere.001",
            "primitives" : [
                {
                    "attributes" : {
                        "POSITION" : 4,
                        "NORMAL" : 5,
                        "TEXCOORD_0" : 6
                    },
                    "indices" : 3,
                    "material" : 1
                }
            ]
        },
        {
            "name" : "Icosphere.003",
            "primitives" : [
                {
                    "attributes" : {
                        "POSITION" : 7,
                        "NORMAL" : 8,
                        "TEXCOORD_0" : 9
                    },
                    "indices" : 3,
                    "material" : 2
                }
            ]
        }
    ],
    "accessors" : [
        {
            "bufferView" : 0,
            "componentType" : 5126,
            "count" : 60,
            "max" : [
                0.8944249749183655,
                1,
                0.8506399989128113
            ],
            "min" : [
                -0.8944249749183655,
                -0.45596054196357727,
                -0.8506399989128113
            ],
            "type" : "VEC3"
        },
        {
            "bufferView" : 1,
            "componentType" : 5126,
            "count" : 60,
            "type" : "VEC3"
        },
        {
            "bufferView" : 2,
            "componentType" : 5126,
            "count" : 60,
            "type" : "VEC2"
        },
        {
            "bufferView" : 3,
            "componentType" : 5123,
            "count" : 60,
            "type" : "SCALAR"
        },
        {
            "bufferView" : 4,
            "componentType" : 5126,
            "count" : 60,
            "max" : [
                0.8944249749183655,
                1,
                0.8506399989128113
            ],
            "min" : [
                -0.8944249749183655,
                -0.45596054196357727,
                -0.8506399989128113
            ],
            "type" : "VEC3"
        },
        {
            "bufferView" : 5,
            "componentType" : 5126,
            "count" : 60,
            "type" : "VEC3"
        },
        {
            "bufferView" : 6,
            "componentType" : 5126,
            "count" : 60,
            "type" : "VEC2"
        },
        {
            "bufferView" : 7,
            "componentType" : 5126,
            "count" : 60,
            "max" : [
                0.8944249749183655,
                1,
                0.8506399989128113
            ],
            "min" : [
                -0.8944249749183655,
                -0.45596054196357727,
                -0.8506399989128113
            ],
            "type" : "VEC3"
        },
        {
            "bufferView" : 8,
            "componentType" : 5126,
            "count" : 60,
            "type" : "VEC3"
        },
        {
            "bufferView" : 9,
            "componentType" : 5126,
            "count" : 60,
            "type" : "VEC2"
        }
    ],
    "bufferViews" : [
        {
            "buffer" : 0,
            "byteLength" : 720,
            "byteOffset" : 0,
            "target" : 34962
        },
        {
            "buffer" : 0,
            "byteLength" : 720,
            "byteOffset" : 720,
            "target" : 34962
        },
        {
            "buffer" : 0,
            "byteLength" : 480,
            "byteOffset" : 1440,
            "target" : 34962
        },
        {
            "buffer" : 0,
            "byteLength" : 120,
            "byteOffset" : 1920,
            "target" : 34963
        },
        {
            "buffer" : 0,
            "byteLength" : 720,
            "byteOffset" : 2040,
            "target" : 34962
        },
        {
            "buffer" : 0,
            "byteLength" : 720,
            "byteOffset" : 2760,
            "target" : 34962
        },
        {
            "buffer" : 0,
            "byteLength" : 480,
            "byteOffset" : 3480,
            "target" : 34962
        },
        {
            "buffer" : 0,
            "byteLength" : 720,
            "byteOffset" : 3960,
            "target" : 34962
        },
        {
            "buffer" : 0,
            "byteLength" : 720,
            "byteOffset" : 4680,
            "target" : 34962
        },
        {
            "buffer" : 0,
            "byteLength" : 480,
            "byteOffset" : 5400,
            "target" : 34962
        }
    ],
    "buffers" : [
        {
            "byteLength" : 5880,
            "uri" : "data:application/octet-stream;base64,"
        }
    ]
}
