{
    "asset" : {
        "generator" : "Khronos glTF Blender I/O v3.3.27",
        "version" : "2.0"
    },
    "scene" : 0,
    "scenes" : [
        {
            "name" : "Scene",
            "nodes" : [
                0,
                1
            ]
        }
    ],
    "nodes" : [
        {
            "mesh" : 0,
            "name" : "Plane",
            "scale" : [
                1,
                1.1837536096572876,
                1
            ],
            "translation" : [
                0,
                -0.0016192793846130371,
                0
            ]
        },
        {
            "mesh" : 1,
            "name" : "Icosphere",
            "scale" : [
                0.6225996017456055,
                0.7370045185089111,
                0.6978230476379395
            ],
            "translation" : [
                0.1121065616607666,
                2.715914487838745,
                0.017128467559814453
            ]
        }
    ],
    "materials" : [
        {
            "doubleSided" : true,
            "name" : "wood",
            "pbrMetallicRoughness" : {
                "baseColorFactor" : [
                    0.48689690232276917,
                    0.1167292445898056,
                    0.029082490131258965,
                    1
                ],
                "metallicFactor" : 0,
                "roughnessFactor" : 0.665354311466217
            }
        },
        {
            "doubleSided" : true,
            "name" : "green",
            "pbrMetallicRoughness" : {
                "baseColorFactor" : [
                    0.06602965295314789,
                    0.4019688069820404,
                    0.0322270430624485,
                    1
                ],
                "metallicFactor" : 0,
                "roughnessFactor" : 0.7047244310379028
            }
        }
    ],
    "meshes" : [
        {
            "name" : "Plane.001",
            "primitives" : [
                {
                    "attributes" : {
                        "POSITION" : 0,
                        "NORMAL" : 1
                    },
                    "indices" : 2,
                    "material" : 0
                }
            ]
        },
        {
            "name" : "Icosphere",
            "primitives" : [
                {
                    "attributes" : {
                        "POSITION" : 3,
                        "NORMAL" : 4,
                        "TEXCOORD_0" : 5
                    },
                    "indices" : 6,
                    "material" : 1
                }
            ]
        }
    ],
    "accessors" : [
        {
            "bufferView" : 0,
            "componentType" : 5126,
            "count" : 538,
            "max" : [
                0.6668137311935425,
                2.254540205001831,
                0.14836053550243378
            ],
            "min" : [
                -0.6320675015449524,
                -0.009005269967019558,
                -0.14836053550243378
            ],
            "type" : "VEC3"
        },
        {
            "bufferView" : 1,
            "componentType" : 5126,
            "count" : 538,
            "type" : "VEC3"
        },
        {
            "bufferView" : 2,
            "componentType" : 5123,
            "count" : 786,
            "type" : "SCALAR"
        },
        {
            "bufferView" : 3,
            "componentType" : 5126,
            "count" : 288,
            "max" : [
                1.4008561372756958,
                0.9921908974647522,
                1.1543240547180176
            ],
            "min" : [
                -1.7219908237457275,
                -0.9187525510787964,
                -0.9974988698959351
            ],
            "type" : "VEC3"
        },
        {
            "bufferView" : 4,
            "componentType" : 5126,
            "count" : 288,
            "type" : "VEC3"
        },
        {
            "bufferView" : 5,
            "componentType" : 5126,
            "count" : 288,
            "type" : "VEC2"
        },
        {
            "bufferView" : 6,
            "componentType" : 5123,
            "count" : 288,
            "type" : "SCALAR"
        }
    ],
    "bufferViews" : [
        {
            "buffer" : 0,
            "byteLength" : 6456,
            "byteOffset" : 0,
            "target" : 34962
        },
        {
            "buffer" : 0,
            "byteLength" : 6456,
            "byteOffset" : 6456,
            "target" : 34962
        },
        {
            "buffer" : 0,
            "byteLength" : 1572,
            "byteOffset" : 12912,
            "target" : 34963
        },
        {
            "buffer" : 0,
            "byteLength" : 3456,
            "byteOffset" : 14484,
            "target" : 34962
        },
        {
            "buffer" : 0,
            "byteLength" : 3456,
            "byteOffset" : 17940,
            "target" : 34962
        },
        {
            "buffer" : 0,
            "byteLength" : 2304,
            "byteOffset" : 21396,
            "target" : 34962
        },
        {
            "buffer" : 0,
            "byteLength" : 576,
            "byteOffset" : 23700,
            "target" : 34963
        }
    ],
    "buffers" : [
        {
            "byteLength" : 24276,
            "uri" : "data:application/octet-stream;base64,"
        }
    ]
}
